<svg xmlns="http://www.w3.org/2000/svg" width="32" height="32" viewBox="0 0 32 32">
              <g class="nc-icon-wrapper">
                <rect x="2" y="7" width="28" height="18" rx="3" ry="3" fill="#e6e6e6" stroke-width="0"></rect>
                <g opacity=".15">
                  <path d="m27,7H5c-1.6569,0-3,1.3431-3,3v12c0,1.6569,1.3431,3,3,3h22c1.6569,0,3-1.3431,3-3v-12c0-1.6569-1.3431-3-3-3Zm2,15c0,1.103-.897,2-2,2H5c-1.103,0-2-.897-2-2v-12c0-1.103.897-2,2-2h22c1.103,0,2,.897,2,2v12Z" stroke-width="0"></path>
                </g>
                <path d="m27,8H5c-1.1046,0-2,.8954-2,2v1c0-1.1046.8954-2,2-2h22c1.1046,0,2,.8954,2,2v-1c0-1.1046-.8954-2-2-2Z" fill="#fff" opacity=".2" stroke-width="0"></path>
                <path d="m8.8469,12.8798c.2708-.3387.4545-.7935.4061-1.2582-.3964.0197-.8801.2615-1.1602.6005-.2515.2903-.474.7641-.416,1.2093.445.0386.8895-.2224,1.1701-.5516" fill="#1a1a1a" stroke-width="0"></path>
                <path d="m9.2479,13.5184c-.6462-.0385-1.1956.3668-1.5042.3668-.3088,0-.7813-.3474-1.2924-.338-.6652.0098-1.2825.3859-1.6201.9841-.6944,1.1968-.1832,2.972.492,3.9467.3279.4822.7231,1.0132,1.2438.9941.492-.0193.6848-.3186,1.2828-.3186.5976,0,.7713.3186,1.2921.3089.5401-.0097.8777-.4825,1.2056-.9651.3762-.5497.5302-1.0805.5398-1.1096-.0097-.0097-1.0414-.4055-1.051-1.5923-.0097-.9937.81-1.4664.8486-1.4957-.4629-.6847-1.1863-.7619-1.437-.7813" fill="#1a1a1a" stroke-width="0"></path>
                <path d="m14.8746,12.1735c1.4045,0,2.3825.9681,2.3825,2.3777,0,1.4146-.9981,2.3878-2.4178,2.3878h-1.5551v2.473h-1.1235v-7.2385h2.7138Zm-1.5903,3.8224h1.2892c.9782,0,1.535-.5266,1.535-1.4396s-.5567-1.4346-1.5299-1.4346h-1.2942v2.8743Z" fill="#1a1a1a" stroke-width="0"></path>
                <path d="m17.5507,17.9121c0-.9231.7073-1.4899,1.9615-1.5601l1.4446-.0852v-.4063c0-.5869-.3963-.9381-1.0583-.9381-.6272,0-1.0185.3009-1.1137.7725h-1.0233c.0602-.9532.8727-1.6554,2.177-1.6554,1.2791,0,2.0967.6772,2.0967,1.7356v3.6368h-1.0384v-.8678h-.025c-.3059.5869-.9732.9581-1.6654.9581-1.0334,0-1.7557-.6421-1.7557-1.5901Zm3.406-.4765v-.4163l-1.2993.0802c-.6471.0452-1.0132.3311-1.0132.7826,0,.4614.3812.7624.9631.7624.7574,0,1.3494-.5217,1.3494-1.2089Z" fill="#1a1a1a" stroke-width="0"></path>
                <path d="m23.0155,21.3533v-.8779c.0801.02.2607.02.351.02.5016,0,.7725-.2106.938-.7524,0-.0101.0954-.321.0954-.3261l-1.9061-5.2821h1.1737l1.3345,4.294h.0199l1.3345-4.294h1.1437l-1.9765,5.553c-.4513,1.2792-.973,1.6905-2.0665,1.6905-.0904,0-.3613-.0101-.4414-.0251Z" fill="#1a1a1a" stroke-width="0"></path>
              </g>
            </svg>