<svg xmlns="http://www.w3.org/2000/svg" width="32" height="32" viewBox="0 0 32 32">
              <g class="nc-icon-wrapper">
                <rect x="2" y="7" width="28" height="18" rx="3" ry="3" fill="#fff" stroke-width="0"></rect>
                <g opacity=".15">
                  <path d="m27,7H5c-1.6569,0-3,1.3431-3,3v12c0,1.6569,1.3431,3,3,3h22c1.6569,0,3-1.3431,3-3v-12c0-1.6569-1.3431-3-3-3Zm2,15c0,1.103-.897,2-2,2H5c-1.103,0-2-.897-2-2v-12c0-1.103.897-2,2-2h22c1.103,0,2,.897,2,2v12Z" stroke-width="0"></path>
                </g>
                <path d="m27,8H5c-1.1046,0-2,.8954-2,2v1c0-1.1046.8954-2,2-2h22c1.1046,0,2,.8954,2,2v-1c0-1.1046-.8954-2-2-2Z" fill="#fff" opacity=".2" stroke-width="0"></path>
                <path d="m14.8969,16.1308v2.7891h-.8997v-6.8978h2.3393c.5698,0,1.1097.2099,1.5295.5998.4199.3599.6298.8997.6298,1.4695s-.2099,1.0797-.6298,1.4695c-.4199.3899-.9297.5998-1.5295.5998l-1.4395-.03h0Zm0-3.269v2.3992h1.4995c.3299,0,.6598-.12.8697-.3599.4798-.4499.4798-1.1996.03-1.6495l-.03-.03c-.2399-.2399-.5398-.3899-.8697-.3599h-1.4995Z" fill="#5f6368" stroke-width="0"></path>
                <path d="m20.5651,14.0615c.6598,0,1.1696.1799,1.5595.5398s.5698.8397.5698,1.4396v2.8791h-.8397v-.6598h-.03c-.3599.5398-.8697.8097-1.4695.8097-.5098,0-.9597-.15-1.3196-.4499-.3299-.2999-.5398-.7198-.5398-1.1696,0-.4799.1799-.8697.5398-1.1696s.8697-.4199,1.4695-.4199c.5398,0,.9597.09,1.2896.2999v-.2099c0-.2999-.12-.5998-.3599-.7798-.2399-.2099-.5398-.3299-.8697-.3299-.5098,0-.8997.2099-1.1696.6298l-.7798-.4799c.4799-.6298,1.1097-.9297,1.9494-.9297Zm-1.1396,3.4189c0,.2399.12.4499.2999.5698.2099.15.4499.2399.6898.2399.3599,0,.7198-.15.9897-.4199.2999-.2699.4499-.5998.4499-.9597-.2699-.2099-.6598-.3299-1.1696-.3299-.3599,0-.6598.09-.8997.2699-.2399.15-.3599.3599-.3599.6298Z" fill="#5f6368" stroke-width="0"></path>
                <path d="m27.5529,14.2114l-2.9691,6.8079h-.8997l1.1097-2.3693-1.9494-4.4086h.9597l1.4096,3.3889h.03l1.3796-3.3889h.9297v-.03Z" fill="#5f6368" stroke-width="0"></path>
                <path d="m12.2324,15.531c0-.2699-.03-.5398-.06-.8097h-3.7488v1.5295h2.1293c-.09.4799-.3599.9297-.7798,1.1996v.9897h1.2896c.7498-.6898,1.1696-1.7095,1.1696-2.9091Z" fill="#4285f4" stroke-width="0"></path>
                <path d="m8.4236,19.3998c1.0797,0,1.9794-.3599,2.6392-.9597l-1.2896-.9897c-.3599.2399-.8097.3899-1.3496.3899-1.0197,0-1.9194-.6898-2.2193-1.6495h-1.3196v1.0197c.6898,1.3496,2.0394,2.1893,3.5389,2.1893Z" fill="#34a853" stroke-width="0"></path>
                <path d="m6.2043,16.1908c-.1799-.4799-.1799-1.0197,0-1.5295v-1.0197h-1.3196c-.5698,1.1097-.5698,2.4292,0,3.5689l1.3196-1.0197Z" fill="#fbbc04" stroke-width="0"></path>
                <path d="m8.4236,13.0418c.5698,0,1.1097.2099,1.5295.5998h0l1.1396-1.1396c-.7198-.6598-1.6795-1.0497-2.6392-1.0197-1.4995,0-2.8791.8397-3.5389,2.1893l1.3196,1.0197c.2699-.9597,1.1696-1.6495,2.1893-1.6495Z" fill="#ea4335" stroke-width="0"></path>
              </g>
            </svg>