<?xml version="1.0" encoding="utf-8"?>
<!-- Generator: Adobe Illustrator 19.2.1, SVG Export Plug-In . SVG Version: 6.00 Build 0)  -->
<svg version="1.1" id="layer" xmlns="http://www.w3.org/2000/svg" xmlns:xlink="http://www.w3.org/1999/xlink" x="0px" y="0px"
	 viewBox="0 0 652 652" style="enable-background:new 0 0 652 652;" xml:space="preserve">
<style type="text/css">
	.st0{fill:#374151;}
	.st1{fill:#9CA3AF;}
	.st2{fill:#6B7280;}
	.st3{fill:#D1D5DB;}
	.st4{fill:#4B5563;}
	.st5{fill:#1F2937;}
</style>
<path class="st0" d="M171,307.9l-40.5-40.5c-1.4-1.3-3.5-1.3-4.8,0l-8,8l32.5,32.5c1.3,1.3,1.3,3.5,0,4.8c0,0,0,0,0,0l-33.5,33.5
	l8,8c1.4,1.3,3.5,1.3,4.8,0l41.4-41.4C172.3,311.4,172.3,309.3,171,307.9"/>
<path class="st1" d="M102,270.4l-2.9-2.9c-1.4-1.3-3.5-1.3-4.8,0l-8,8l5.3,5.3l10.4,10.4l10.4-10.4L102,270.4z"/>
<path class="st1" d="M101.1,330.6l-10.4,10.4l-5.3,5.3l8,8c1.4,1.3,3.5,1.3,4.8,0l2.9-2.9l10.4-10.4L101.1,330.6z"/>
<path class="st2" d="M118.9,307.9c1.3,1.4,1.3,3.5,0,4.8l-17.8,17.8l10.4,10.4l28.2-28.2c1.3-1.3,1.3-3.5,0-4.8c0,0,0,0,0,0
	l-27.2-27.2L102,291.1L118.9,307.9z"/>
<path class="st3" d="M52.8,308.9L81,280.7l-10.4-10.4l-3-2.9c-1.4-1.3-3.5-1.3-4.8,0l-41.4,41.5c-1.3,1.3-1.3,3.5,0,4.8c0,0,0,0,0,0
	l40.5,40.5c1.4,1.3,3.5,1.3,4.8,0l3-2.9l10.4-10.4l-27.2-27.2C51.5,312.4,51.5,310.3,52.8,308.9C52.8,308.9,52.8,308.9,52.8,308.9"
	/>
<path class="st1" d="M84.2,308.9l12.4-12.4l-10.4-10.4l-5.3-5.3L52.9,309c-1.3,1.3-1.3,3.5,0,4.8c0,0,0,0,0,0L80,340.9l5.3-5.3
	l10.4-10.4l-11.5-11.5C82.9,312.5,82.9,310.3,84.2,308.9"/>
<path class="st4" d="M84.2,313.7l11.5,11.5l12.4-12.4c1.3-1.3,1.3-3.5,0-4.8c0,0,0,0,0,0l-11.5-11.5l-12.4,12.4
	C83,310.3,83,312.4,84.2,313.7"/>
<path class="st5" d="M203.5,299.4c0.1-4.6,1-9.1,2.7-13.4c1.6-3.9,4-7.5,7-10.4c3.3-3,7.2-5.3,11.4-6.7c5.1-1.7,10.5-2.5,15.8-2.4
	c6-0.2,12,0.7,17.6,2.7c4,1.5,7.8,3.7,11,6.6c2.5,2.2,4.4,4.9,5.7,7.9c1,2.2,1.6,4.5,1.9,6.9c0.1,0.9-0.2,1.8-0.9,2.4
	c-0.7,0.6-1.5,0.9-2.4,0.9h-9.9c-0.8,0-1.5-0.2-2.1-0.7c-0.5-0.4-0.9-0.9-1.1-1.4c-0.2-0.3-0.6-1-1.3-2.1c-0.9-1.3-2-2.5-3.3-3.4
	c-1.8-1.3-3.8-2.4-5.9-3.2c-2.9-1-6.1-1.5-9.2-1.4c-5.3-0.3-10.6,1.5-14.7,4.9c-3.7,3.4-5.8,8.2-5.9,13.3c-0.2,3.1-0.2,6.4-0.2,10
	c0,3.5,0,6.9,0.2,10c0.2,6.8,2.2,11.7,5.9,14.7c4.2,3.2,9.4,4.8,14.6,4.6c2.8,0,5.6-0.3,8.3-1c2.4-0.6,4.6-1.7,6.5-3.2
	c1.9-1.5,3.4-3.5,4.3-5.8c1.1-2.8,1.6-5.8,1.5-8.8v-1h-14.9c-0.9,0-1.7-0.3-2.3-1c-0.6-0.6-1-1.4-1-2.3v-8.7c0-1.8,1.5-3.3,3.3-3.3
	h28.2c1.8,0,3.3,1.5,3.3,3.3v13.4c0.1,4.6-0.7,9.2-2.3,13.5c-1.5,4-3.9,7.6-7,10.6c-3.3,3.1-7.3,5.5-11.6,7
	c-10.5,3.3-21.8,3.3-32.4,0c-4.2-1.4-8.1-3.7-11.3-6.7c-3-3-5.4-6.6-6.9-10.6c-1.6-4.3-2.5-8.9-2.6-13.5c0-1.5-0.1-3.3-0.2-5.1
	c0-1.9,0-3.8,0-5.8c0-2,0-3.9,0-5.7c0-1.9,0.1-3.5,0.2-5.1"/>
<path class="st5" d="M315.3,303.2c-2.1-0.1-4.1,0.3-6.1,1c-1.6,0.6-3,1.5-4.2,2.7c-1.1,1-2,2.3-2.6,3.7c-0.6,1.2-1,2.5-1.1,3.8h27.6
	c-0.2-1.3-0.5-2.6-0.9-3.8c-0.5-1.4-1.2-2.6-2.2-3.7c-1.1-1.2-2.5-2.1-4-2.7C319.7,303.4,317.5,303.1,315.3,303.2 M285.4,321.5
	c0-4.4,0.7-8.7,2.1-12.9c1.3-3.9,3.3-7.5,6-10.6c2.6-3,5.9-5.4,9.5-7c3.9-1.7,8.1-2.6,12.3-2.6c4.2-0.1,8.4,0.8,12.3,2.5
	c3.6,1.6,6.9,3.9,9.6,6.8c2.6,2.9,4.7,6.2,6.1,9.9c1.4,3.8,2.2,7.8,2.1,11.9v5.5c0,1.8-1.5,3.3-3.3,3.3h-40.8c0,1.7,0.4,3.4,1.1,4.9
	c0.8,1.4,1.8,2.6,3.1,3.5c1.4,1,2.9,1.7,4.5,2.2c1.7,0.5,3.5,0.7,5.3,0.7c2.1,0.1,4.3-0.2,6.4-0.8c1.4-0.4,2.8-1.1,4-2
	c0.7-0.5,1.4-1,2.2-1.4c0.7-0.3,1.5-0.4,2.3-0.4h9.8c0.9,0,1.8,0.4,2.4,1c0.7,0.6,1,1.4,0.9,2.3c-0.3,1.6-0.9,3.1-1.9,4.4
	c-1.4,2.1-3.2,3.9-5.3,5.3c-2.7,1.9-5.7,3.4-8.8,4.4c-3.9,1.3-8,1.9-12,1.8c-4.2,0-8.4-0.8-12.3-2.4c-3.6-1.5-6.9-3.8-9.5-6.7
	c-2.7-3.1-4.7-6.6-6-10.5C286,330.5,285.3,326,285.4,321.5"/>
<path class="st5" d="M374.7,330.3c-0.1,2.2,0.6,4.4,2,6c1.3,1.5,3.8,2.3,7.5,2.3h7.4c1.8,0,3.3,1.5,3.3,3.3v8.1
	c0,1.8-1.5,3.3-3.3,3.3h-9.1c-7.7,0-13.5-1.9-17.6-5.6c-4.1-3.7-6.1-9.4-6.2-17v-26.3h-8.1c-0.9,0-1.7-0.3-2.3-1
	c-0.6-0.6-1-1.4-1-2.3V293c0-0.9,0.3-1.7,1-2.3c0.6-0.6,1.4-1,2.3-1h8.1v-19.9c0-1.8,1.5-3.3,3.3-3.3h9.3c1.8,0,3.3,1.5,3.3,3.3
	v19.9h15.8c1.8,0.1,3.1,1.5,3.2,3.3v8.1c0,1.8-1.5,3.3-3.3,3.3h-15.8L374.7,330.3z"/>
<path class="st5" d="M455,321.4l-13.5-34.8l-13.4,34.8H455z M448.2,267.7c1.1-0.1,2.1,0.3,2.9,1c0.8,0.9,1.4,2,1.8,3.1l29.9,77.3
	c0.1,0.3,0.1,0.6,0.1,0.8c0,1.8-1.5,3.3-3.3,3.3h-8.8c-1.2,0.1-2.5-0.2-3.4-1c-0.6-0.6-1-1.3-1.3-2l-5.3-13.6h-38.6l-5.3,13.6
	c-0.3,0.8-0.8,1.4-1.3,2c-1,0.8-2.2,1.2-3.4,1h-8.8c-1.8,0-3.3-1.5-3.3-3.3c0-0.3,0-0.6,0.1-0.8l29.9-77.3c0.4-1.1,1-2.2,1.8-3.1
	c0.8-0.7,1.9-1.1,2.9-1H448.2z"/>
<path class="st5" d="M535.3,324.9c0.2-2.3,0.2-4.6,0-6.8c-0.5-5.3-2.1-9.1-4.9-11.4c-2.8-2.4-6.4-3.6-10.1-3.5
	c-3.7-0.1-7.3,1.1-10.1,3.5c-2.9,2.6-4.5,6.3-4.7,10.1c-0.2,1.5-0.3,3.1-0.2,4.6c0,1.6,0.1,3.1,0.2,4.6c0.2,3.8,1.9,7.4,4.7,10
	c2.8,2.5,6.4,3.8,10.1,3.7c3.7,0.1,7.3-1.2,10.1-3.5C533.2,333.9,534.8,330.1,535.3,324.9 M524,354.5c-2.3,0-4.6-0.2-6.8-0.7
	c-1.8-0.4-3.6-1-5.3-1.8c-1.3-0.7-2.6-1.5-3.8-2.5c-0.9-0.7-1.8-1.5-2.6-2.4v26c0,1.8-1.5,3.3-3.3,3.3H493c-1.8,0-3.3-1.5-3.3-3.3
	V293c0-1.8,1.5-3.3,3.3-3.3h9.3c1.8,0,3.3,1.5,3.3,3.3v2.8c0.8-0.9,1.6-1.7,2.6-2.4c1.2-0.9,2.5-1.7,3.9-2.4
	c1.7-0.8,3.5-1.4,5.3-1.8c2.2-0.5,4.5-0.7,6.8-0.7c3.8-0.1,7.6,0.8,11.1,2.4c3.2,1.5,6.1,3.7,8.4,6.4c2.4,2.7,4.2,5.8,5.5,9.2
	c1.3,3.5,2.1,7.1,2.3,10.8c0.1,1.2,0.1,2.6,0.1,4.3s0,3.1-0.1,4.3c-0.2,3.7-0.9,7.4-2.3,10.8c-1.3,3.4-3.1,6.5-5.5,9.2
	c-2.3,2.7-5.2,4.8-8.4,6.4C531.6,353.8,527.8,354.6,524,354.5"/>
<path class="st5" d="M604.4,324.9c0.2-2.3,0.2-4.6,0-6.8c-0.5-5.3-2.1-9.1-4.9-11.4c-2.8-2.4-6.4-3.6-10.1-3.5
	c-3.7-0.1-7.3,1.1-10.1,3.5c-2.9,2.6-4.5,6.3-4.7,10.1c-0.2,1.5-0.3,3.1-0.2,4.6c0,1.6,0.1,3.1,0.2,4.6c0.2,3.8,1.9,7.4,4.7,10
	c2.8,2.5,6.4,3.8,10.1,3.7c3.7,0.1,7.3-1.2,10.1-3.5C602.3,333.9,603.9,330.1,604.4,324.9 M593,354.4c-2.3,0-4.6-0.2-6.8-0.7
	c-1.8-0.4-3.6-1-5.3-1.8c-1.4-0.7-2.7-1.5-3.8-2.4c-0.9-0.7-1.8-1.5-2.6-2.4v26c0,0.9-0.4,1.7-1,2.3c-0.6,0.6-1.4,1-2.3,1h-9.3
	c-1.8,0-3.3-1.5-3.3-3.3V293c0-1.8,1.5-3.3,3.3-3.3h9.3c1.8,0,3.3,1.5,3.3,3.3v2.8c0.8-0.9,1.7-1.7,2.6-2.4c1.2-0.9,2.5-1.7,3.8-2.4
	c1.7-0.8,3.5-1.4,5.3-1.8c2.2-0.5,4.5-0.7,6.8-0.7c3.8-0.1,7.6,0.8,11.1,2.4c3.2,1.5,6.1,3.7,8.4,6.4c2.4,2.7,4.2,5.8,5.5,9.2
	c1.3,3.5,2.1,7.1,2.3,10.8c0.1,1.2,0.1,2.6,0.1,4.3s0,3.1-0.1,4.3c-0.2,3.7-0.9,7.4-2.3,10.8c-1.3,3.4-3.1,6.5-5.5,9.2
	c-2.4,2.7-5.2,4.8-8.4,6.4c-3.5,1.6-7.3,2.4-11.1,2.4"/>
</svg>
